Coordinates
version=1
nRows=7
nColumns=40
inDegrees=yes

Units are S.I. units (second, meters, Newtons, ...)
If the header above contains a line with 'inDegrees', this indicates whether rotational values are in degrees (yes) or radians (no).

endheader
time	pelvis_tilt	pelvis_list	pelvis_rotation	pelvis_tx	pelvis_ty	pelvis_tz	hip_flexion_r	hip_adduction_r	hip_rotation_r	knee_angle_r	knee_angle_r_beta	ankle_angle_r	subtalar_angle_r	mtp_angle_r	hip_flexion_l	hip_adduction_l	hip_rotation_l	knee_angle_l	knee_angle_l_beta	ankle_angle_l	subtalar_angle_l	mtp_angle_l	lumbar_extension	lumbar_bending	lumbar_rotation	arm_flex_r	arm_add_r	arm_rot_r	elbow_flex_r	pro_sup_r	wrist_flex_r	wrist_dev_r	arm_flex_l	arm_add_l	arm_rot_l	elbow_flex_l	pro_sup_l	wrist_flex_l	wrist_dev_l
      0.92000000	      0.34267667	     -7.79074891	     86.88395904	      0.19957610	      0.93450163	     -0.31162664	     28.85907081	     -1.62128009	     -0.81258560	     51.86319639	      0.90518354	      1.33986730	      0.00000000	     -0.00000000	     12.83500842	      2.71460963	     -5.60615908	     11.45279732	      0.19988902	      1.45877139	     -0.00000000	     -0.00000000	      0.86504785	      0.83882377	     -2.27682186	     -0.00000000	     -0.00000000	      0.00000000	      0.00000000	      0.00000000	      0.00000000	      0.00000000	      0.00000000	     -0.00000000	     -0.00000000	      0.00000000	      0.00000000	     -0.00000000	      0.00000000
      0.93000000	      0.43409976	     -7.91584573	     87.09479414	      0.19927790	      0.93481858	     -0.32184477	     29.70169021	     -1.43438108	     -1.10621232	     49.42501893	      0.86262931	      1.45074804	      0.00000000	      0.00000000	     11.80787110	      2.77212666	     -5.28425792	     10.58029413	      0.18466097	      1.55684598	      0.00000000	      0.00000000	      0.83440045	      0.94328950	     -2.61771987	      0.00000000	      0.00000000	      0.00000000	      0.00000000	      0.00000000	      0.00000000	      0.00000000	      0.00000000	      0.00000000	      0.00000000	      0.00000000	      0.00000000	      0.00000000	      0.00000000
      0.94000000	      0.53186872	     -8.02311071	     87.32685959	      0.19901354	      0.93500072	     -0.33214548	     30.38878100	     -1.24360208	     -1.44365336	     46.71159373	      0.81527111	      1.39650099	      0.00000000	      0.00000000	     10.73738517	      2.81363349	     -4.92719576	      9.66389255	      0.16866674	      1.61343194	      0.00000000	      0.00000000	      0.80399833	      1.05754356	     -2.98819184	      0.00000000	      0.00000000	      0.00000000	      0.00000000	      0.00000000	      0.00000000	      0.00000000	      0.00000000	      0.00000000	      0.00000000	      0.00000000	      0.00000000	      0.00000000	      0.00000000
      0.95000000	      0.59745828	     -8.09380901	     87.52422538	      0.19886653	      0.93503657	     -0.34253532	     30.93325454	     -1.05037799	     -1.75173602	     43.79743142	      0.76440938	      1.30252704	      0.00000000	      0.00000000	      9.59778200	      2.87858537	     -4.57157168	      8.69708173	      0.15179271	      1.71546787	      0.00000000	      0.00000000	      0.74260658	      1.13426913	     -3.29792183	      0.00000000	      0.00000000	      0.00000000	      0.00000000	      0.00000000	      0.00000000	      0.00000000	      0.00000000	      0.00000000	      0.00000000	      0.00000000	      0.00000000	      0.00000000	      0.00000000
      0.96000000	      0.67109758	     -8.18433166	     87.75518464	      0.19871326	      0.93483439	     -0.35296041	     31.38511104	     -0.85822746	     -2.11292715	     40.67415244	      0.70989788	      1.01917770	      0.00000000	      0.00000000	      8.50946260	      2.92103036	     -4.20414274	      7.78875955	      0.13593950	      1.78593345	      0.00000000	      0.00000000	      0.71256870	      1.22391985	     -3.67479946	      0.00000000	      0.00000000	      0.00000000	      0.00000000	      0.00000000	      0.00000000	      0.00000000	      0.00000000	      0.00000000	      0.00000000	      0.00000000	      0.00000000	      0.00000000	      0.00000000
      0.97000000	      0.69631398	     -8.49075450	     87.97838195	      0.19862648	      0.93406081	     -0.36333844	     32.01707673	     -0.67691902	     -2.43489311	     37.44695153	      0.65357260	      0.72650011	      0.00000000	      0.00000000	      7.71062842	      2.99237011	     -3.75830565	      6.99393695	      0.12206723	      2.00814143	      0.00000000	      0.00000000	      0.94072899	      1.25851010	     -3.98400641	      0.00000000	      0.00000000	      0.00000000	      0.00000000	      0.00000000	      0.00000000	      0.00000000	      0.00000000	      0.00000000	      0.00000000	      0.00000000	      0.00000000	      0.00000000	      0.00000000
      0.98000000	      0.73514471	     -8.36345811	     88.19364737	      0.19862158	      0.93371137	     -0.37411054	     32.00399304	     -0.48772217	     -2.81400558	     33.97746271	      0.59301860	      0.30948209	      0.00000000	      0.00000000	      6.32417368	      3.05272308	     -3.42825433	      6.00460097	      0.10480006	      2.02773520	      0.00000000	      0.00000000	      0.69324713	      1.30535378	     -4.32818997	      0.00000000	      0.00000000	      0.00000000	      0.00000000	      0.00000000	      0.00000000	      0.00000000	      0.00000000	      0.00000000	      0.00000000	      0.00000000	      0.00000000	      0.00000000	      0.00000000
